<?xml version="1.0" encoding="utf-8"?>
<!-- Generator: Adobe Illustrator 17.0.0, SVG Export Plug-In . SVG Version: 6.00 Build 0)  -->
<!DOCTYPE svg PUBLIC "-//W3C//DTD SVG 1.1//EN" "http://www.w3.org/Graphics/SVG/1.1/DTD/svg11.dtd">
<svg version="1.1" id="Слой_1" xmlns="http://www.w3.org/2000/svg" xmlns:xlink="http://www.w3.org/1999/xlink" x="0px" y="0px"
	 width="489.361px" height="127.574px" viewBox="0 0 489.361 127.574" enable-background="new 0 0 489.361 127.574"
	 xml:space="preserve">
<g>
	<path fill="#FFFFFF" d="M159.357,101.42h-2.701v-8.924c0-0.943,0.031-1.709,0.097-2.304h-0.07
		c-0.139,0.306-0.358,0.689-0.658,1.152l-6.488,10.076h-2.972V86.545h2.711v8.882c0,1.037-0.024,1.733-0.08,2.081h0.042
		c0.017-0.059,0.251-0.442,0.696-1.152l6.272-9.812h3.15V101.42z"/>
	<path fill="#FFFFFF" d="M175.28,101.42h-2.844v-6.265h-6.519v6.265h-2.84V86.545h2.84v6.115h6.519v-6.115h2.844V101.42z"/>
	<path fill="#FFFFFF" d="M188.82,88.939h-4.198v12.481h-2.851V88.939h-4.187v-2.395h11.235V88.939z"/>
	<path fill="#FFFFFF" d="M199.582,101.42h-8.493V86.545h8.165v2.395h-5.325v3.79h4.946v2.384h-4.946v3.923h5.652V101.42z"/>
	<path fill="#FFFFFF" d="M205.126,96.144v5.277h-2.84V86.545h4.845c3.575,0,5.364,1.556,5.364,4.66c0,1.5-0.539,2.711-1.622,3.627
		c-1.079,0.915-2.436,1.354-4.069,1.312H205.126z M205.126,88.838v5.054h1.448c1.96,0,2.941-0.86,2.941-2.576
		c0-1.65-0.961-2.478-2.882-2.478H205.126z"/>
	<path fill="#FFFFFF" d="M227.245,101.42h-2.844v-6.265h-6.519v6.265h-2.84V86.545h2.84v6.115h6.519v-6.115h2.844V101.42z"/>
	<path fill="#FFFFFF" d="M239.448,101.42h-8.493V86.545h8.165v2.395h-5.325v3.79h4.946v2.384h-4.946v3.923h5.652V101.42z"/>
	<path fill="#FFFFFF" d="M251.981,88.939h-4.198v12.481h-2.851V88.939h-4.187v-2.395h11.235V88.939z"/>
	<path fill="#FFFFFF" d="M274.876,105.451h-2.52v-4.03h-9.652v4.03h-2.499v-6.436h1.295c1.98-3.644,3.08-7.8,3.3-12.471h8.033
		v12.471h2.043V105.451z M269.983,99.015V88.991h-2.861c-0.198,3.24-1.089,6.582-2.67,10.024H269.983z"/>
	<path fill="#FFFFFF" d="M289.007,101.42h-2.83V88.991h-3.261c-0.811,5.962-1.549,9.561-2.217,10.797
		c-0.668,1.236-1.664,1.855-2.986,1.855c-0.564,0-1.117-0.094-1.664-0.282v-2.356c0.386,0.15,0.738,0.223,1.058,0.223
		c0.278,0,0.55-0.118,0.811-0.355c0.261-0.233,0.553-0.898,0.874-1.984c0.317-1.089,0.574-2.224,0.766-3.411l1.037-6.933h8.412
		V101.42z"/>
	<path fill="#FFFFFF" d="M302.331,101.42h-2.851v-5.941h-1.236c-0.825,0-1.504,0.627-2.033,1.879l-1.667,4.062h-3.3l2.106-4.587
		c0.529-1.159,1.236-1.886,2.113-2.182v-0.052c-2.134-0.498-3.202-1.772-3.202-3.818c0-1.323,0.473-2.356,1.413-3.108
		c0.94-0.752,2.221-1.128,3.843-1.128h4.814V101.42z M299.48,93.255v-4.434h-1.664c-1.695,0-2.544,0.72-2.544,2.161
		c0,0.686,0.233,1.239,0.693,1.653c0.463,0.414,1.072,0.62,1.831,0.62H299.48z"/>
	<path fill="#FFFFFF" d="M326.66,105.451h-2.52v-4.03h-9.652v4.03h-2.499v-6.436h1.295c1.98-3.644,3.08-7.8,3.3-12.471h8.033v12.471
		h2.043V105.451z M321.766,99.015V88.991h-2.861c-0.198,3.24-1.089,6.582-2.67,10.024H321.766z"/>
	<path fill="#FFFFFF" d="M328.431,94.174c0-2.335,0.661-4.232,1.987-5.687s3.091-2.182,5.29-2.182c2.085,0,3.766,0.703,5.036,2.116
		c1.274,1.41,1.911,3.223,1.911,5.43c0,2.332-0.658,4.222-1.97,5.666c-1.312,1.444-3.049,2.165-5.207,2.165
		c-2.102,0-3.801-0.703-5.099-2.109C329.079,98.163,328.431,96.363,328.431,94.174z M331.421,94.014c0,1.507,0.369,2.746,1.1,3.714
		c0.734,0.968,1.733,1.448,2.997,1.448c1.309,0,2.328-0.459,3.056-1.378c0.727-0.919,1.093-2.168,1.093-3.745
		c0-1.622-0.355-2.903-1.058-3.839c-0.703-0.936-1.702-1.403-2.99-1.403c-1.302,0-2.328,0.487-3.077,1.469
		C331.794,91.261,331.421,92.503,331.421,94.014z"/>
	<path fill="#FFFFFF" d="M358.796,101.42v-9.216c0-0.672,0.042-1.702,0.122-3.091h-0.059c-0.167,0.849-0.32,1.455-0.459,1.817
		l-3.888,10.49h-2.165l-3.936-10.396c-0.097-0.271-0.251-0.908-0.459-1.911h-0.07c0.073,1.096,0.111,2.29,0.111,3.578v8.729h-2.583
		V86.545h4.086l3.432,9.269c0.285,0.766,0.473,1.448,0.567,2.04h0.07c0.146-0.585,0.352-1.274,0.616-2.06l3.46-9.248h3.968v14.876
		H358.796z"/>
	<path fill="#FFFFFF" d="M377.74,101.42h-3.098l-1.187-3.557h-5.513l-1.156,3.557h-3.101l5.433-14.876h3.279L377.74,101.42z
		 M372.749,95.58l-1.796-5.388c-0.073-0.212-0.15-0.627-0.23-1.232h-0.07c-0.052,0.452-0.136,0.856-0.247,1.215L368.6,95.58H372.749
		z"/>
	<path fill="#FFFFFF" d="M400.044,101.42h-2.701v-8.924c0-0.943,0.031-1.709,0.097-2.304h-0.07
		c-0.139,0.306-0.358,0.689-0.658,1.152l-6.488,10.076h-2.972V86.545h2.711v8.882c0,1.037-0.024,1.733-0.08,2.081h0.042
		c0.017-0.059,0.251-0.442,0.696-1.152l6.272-9.812h3.15V101.42z"/>
	<path fill="#FFFFFF" d="M410.217,94.174c0-2.335,0.661-4.232,1.987-5.687c1.326-1.455,3.091-2.182,5.29-2.182
		c2.085,0,3.766,0.703,5.036,2.116c1.274,1.41,1.911,3.223,1.911,5.43c0,2.332-0.658,4.222-1.97,5.666
		c-1.312,1.444-3.049,2.165-5.207,2.165c-2.102,0-3.801-0.703-5.099-2.109C410.865,98.163,410.217,96.363,410.217,94.174z
		 M413.207,94.014c0,1.507,0.369,2.746,1.1,3.714c0.734,0.968,1.733,1.448,2.997,1.448c1.309,0,2.328-0.459,3.056-1.378
		c0.727-0.919,1.093-2.168,1.093-3.745c0-1.622-0.355-2.903-1.058-3.839s-1.702-1.403-2.99-1.403c-1.302,0-2.328,0.487-3.077,1.469
		S413.207,92.503,413.207,94.014z"/>
	<path fill="#FFFFFF" d="M435.284,99.711v1.768h-2.732v-1.768h-0.327c-1.768,0-3.206-0.557-4.312-1.678
		c-1.107-1.117-1.66-2.558-1.66-4.323c0-1.705,0.546-3.087,1.639-4.149c1.093-1.062,2.527-1.591,4.302-1.591h0.358v-1.751h2.732
		v1.751h0.338c1.81,0,3.258,0.526,4.347,1.58c1.089,1.055,1.636,2.44,1.636,4.159c0,1.751-0.557,3.188-1.671,4.312
		c-1.114,1.128-2.558,1.688-4.333,1.688H435.284z M432.552,97.46v-7.285h-0.198c-0.95,0-1.719,0.327-2.308,0.985
		c-0.588,0.654-0.884,1.531-0.884,2.621c0,1.124,0.289,2.019,0.87,2.683c0.578,0.665,1.354,0.995,2.332,0.995H432.552z
		 M435.284,90.175v7.285h0.178c0.978,0,1.758-0.338,2.339-1.016c0.581-0.675,0.874-1.563,0.874-2.663
		c0-1.079-0.289-1.949-0.863-2.61c-0.574-0.665-1.35-0.995-2.328-0.995H435.284z"/>
	<path fill="#FFFFFF" d="M457.079,101.42h-2.701v-8.924c0-0.943,0.031-1.709,0.097-2.304h-0.07
		c-0.139,0.306-0.358,0.689-0.658,1.152l-6.488,10.076h-2.972V86.545H447v8.882c0,1.037-0.024,1.733-0.08,2.081h0.042
		c0.017-0.059,0.251-0.442,0.696-1.152l6.272-9.812h3.15V101.42z"/>
	<path fill="#FFFFFF" d="M471.158,100.864c-1.065,0.546-2.447,0.818-4.149,0.818c-2.172,0-3.905-0.672-5.196-2.015
		c-1.291-1.343-1.939-3.132-1.939-5.37c0-2.342,0.72-4.264,2.161-5.753c1.444-1.493,3.293-2.238,5.555-2.238
		c1.42,0,2.61,0.191,3.568,0.574v2.809c-0.999-0.585-2.127-0.877-3.39-0.877c-1.483,0-2.67,0.487-3.564,1.465
		c-0.895,0.975-1.34,2.248-1.34,3.818c0,1.542,0.425,2.777,1.277,3.7c0.849,0.922,1.984,1.382,3.397,1.382
		c1.337,0,2.544-0.32,3.62-0.968V100.864z"/>
	<path fill="#FFFFFF" d="M486.483,101.42h-3.098l-1.187-3.557h-5.513l-1.156,3.557h-3.101l5.433-14.876h3.279L486.483,101.42z
		 M481.492,95.58l-1.796-5.388c-0.073-0.212-0.15-0.627-0.23-1.232h-0.07c-0.052,0.452-0.136,0.856-0.247,1.215l-1.806,5.405
		H481.492z"/>
</g>
<g>
	<g>
		<path fill="#FFFFFF" d="M197.954,21.453v9.213V51.12v9.213v9.793v9.213v0.001h8.9V79.34h27.102v-9.213h-27.102v-9.793h22.541
			V51.12h-22.541V30.666h27.102v-9.213h-27.102H197.954z M402.349,21.817v9.213v20.454v9.213v9.793v9.213v0.002h8.9v-0.002h27.103
			v-9.213h-27.103v-9.793h22.541v-9.213h-22.541V31.03h27.103v-9.213h-27.103H402.349z M303.295,21.818h-8.9v57.887h8.9v-0.002
			h26.459V70.49h-26.459V21.818z M239.431,79.34h9.604l2.83-7.227h23.713l2.83,7.227h9.603l-24.319-57.887L239.431,79.34z
			 M271.97,62.9h-16.497l8.249-21.064L271.97,62.9z M374.002,56.813L358.43,21.816l-15.555,34.999l-12.399-34.998h-9.065
			l21.481,57.888l15.547-37.096l15.546,37.094l21.482-57.888h-9.065L374.002,56.813z M175.554,62.554
			c6.678-3.66,11.233-10.917,11.233-19.284c0-11.909-9.221-21.572-20.673-21.794v-0.022h-19.568v0.001v9.212v3.578v17.968v3.515
			v9.213v14.401h8.9V64.94h7.911h2.266l10.56,14.413l11.156-0.019l-12.16-16.597C175.302,62.673,175.432,62.621,175.554,62.554z
			 M164.625,55.727h-9.18v-4.418v-7.685v-8.652v-4.307h8.232h2.01c6.208,0.566,11.095,5.9,11.095,12.475
			C176.782,50.092,171.34,55.727,164.625,55.727z M481.272,45.89c1.806-2.543,2.907-5.654,2.907-9.055
			c0-8.47-6.615-15.334-14.788-15.375l0.002-0.01l-13.558,0.003h-6.026v0.001v9.213v12.353h-0.005l0.005,9.196v17.911v9.213
			l21.993,0.018c9.698,0,17.559-8.138,17.559-18.178C489.361,54.757,486.132,49.123,481.272,45.89z M458.709,30.663
			c1.881-0.003,4.647-0.007,6.957-0.01l2.147-0.002V30.65c0.811-0.001,1.441-0.002,1.754-0.002c3.301,0,5.977,2.77,5.977,6.187
			c0,3.417-2.676,6.188-5.977,6.188c-0.148,0-0.432-0.001-0.774-0.001v-0.001H468.4c-2.137-0.005-6.453-0.017-9.691-0.027V30.663z
			 M472.023,70.17c-2.332,0-13.313-0.033-13.313-0.033l-0.001-0.001V52.208l10.084-0.011v-0.002c0.165,0,0.32,0,0.478,0
			c0.014,0,0.029,0.002,0.044,0.002c0.008,0,0.016-0.002,0.024-0.002c1.183,0,2.161,0,2.684,0c4.794,0,8.682,4.024,8.682,8.988
			C480.705,66.146,476.818,70.17,472.023,70.17z"/>
	</g>
</g>
<g>
	<path fill="#FFFFFF" d="M63.787,0C28.558,0,0,28.558,0,63.787c0,35.228,28.558,63.787,63.787,63.787s63.787-28.558,63.787-63.787
		S99.015,0,63.787,0z M63.801,122.65c-32.445,0-58.747-26.302-58.747-58.747c0-11.595,3.389-22.384,9.188-31.489l58.663,89.505
		C69.936,122.384,66.901,122.65,63.801,122.65z M77.985,120.895L17.206,28.161C27.945,14.182,44.811,5.155,63.801,5.155
		c32.445,0,58.747,26.302,58.747,58.747C122.548,91.453,103.573,114.546,77.985,120.895z"/>
	<path fill="#FFFFFF" d="M84.391,57.962c0-2.923-0.799-5.673-2.203-8.08c-2.923-5.011-8.481-8.507-14.964-8.947l-2.605-0.007
		l-22.072-0.057l4.903,8.921l2.107,0.005l16.292,0.042v0.048c0.008,0,0.015-0.001,0.023-0.001c5.051,0,9.146,3.911,9.146,8.735
		c0,3.65-2.347,6.774-5.676,8.08c-1.07,0.42-2.241,0.655-3.469,0.655c-1.496,0-6.445,0.6-6.445,0.6l4.764,7.02l9.51,14.013h10.766
		L73.859,73.358C80.083,70.601,84.391,64.753,84.391,57.962z"/>
	<path fill="#FF6C00" d="M5.054,63.903c0,32.445,26.302,58.747,58.747,58.747c3.1,0,6.135-0.265,9.104-0.731L14.241,32.414
		C8.443,41.519,5.054,52.308,5.054,63.903z"/>
	<path fill="#009FDF" d="M63.801,5.155c-18.99,0-35.856,9.027-46.595,23.006l60.779,92.733
		c25.587-6.349,44.563-29.442,44.563-56.992C122.548,31.457,96.246,5.155,63.801,5.155z M73.702,88.988l-9.51-14.013l-4.764-7.02
		c0,0,4.949-0.6,6.445-0.6c1.229,0,2.399-0.235,3.469-0.655c3.33-1.305,5.676-4.429,5.676-8.08c0-4.824-4.095-8.735-9.146-8.735
		c-0.008,0-0.015,0.001-0.023,0.001V49.84l-16.292-0.042l-2.107-0.005l-4.903-8.921l22.072,0.057l2.605,0.007
		c6.483,0.44,12.041,3.936,14.964,8.947c1.404,2.406,2.203,5.156,2.203,8.08c0,6.79-4.308,12.638-10.532,15.395l10.609,15.631
		H73.702z"/>
</g>
</svg>
